# Blender v3.3.1 OBJ File: 'awin.blend'
# www.blender.org
mtllib awin.mtl
o 立方体
v -3.064717 -1.867560 -2.731472
v -3.238307 -1.377322 -2.905061
v -1.145421 -0.508342 -0.812176
v -3.436062 0.354026 3.913893
v -1.319011 -0.018104 -0.985765
v -3.609652 0.844264 3.740303
v 2.127651 -1.122263 -0.781349
v -0.034952 1.166947 0.650771
v -1.812930 -0.908737 -0.883047
v 2.127651 -1.122263 -0.781349
v -1.812930 -0.908737 -0.883047
v -0.321235 0.968341 -12.523327
v -0.282081 0.966219 -12.522316
v -0.303284 0.990483 -12.511890
v 3.367185 -2.162247 -2.570931
v 3.455961 -1.686226 -2.737750
v 1.292641 -0.586617 -0.754708
v 3.662169 -0.038405 3.905298
v 1.381417 -0.110596 -0.921526
v 3.750946 0.437616 3.738480
v -2.926451 -1.258399 -1.474952
v -2.903084 -0.969595 -1.418789
v -1.298218 -2.768085 1.202163
v -5.497380 -3.563937 5.066412
v -1.274851 -2.479280 1.258326
v -5.474012 -3.275133 5.122574
v 3.636618 -1.614028 -1.305573
v 3.568883 -1.320287 -1.251762
v 2.351212 -2.965834 1.296346
v 6.886718 -4.234986 5.386018
v 2.283477 -2.672093 1.350158
v 6.818983 -3.941246 5.439830
vt 0.339914 0.635817
vt 0.339914 1.000000
vt 0.228506 0.888592
vt 0.957228 0.714671
vt 0.913478 0.350475
vt 0.957228 0.350772
vt 0.382181 0.638634
vt 0.339914 0.906037
vt 0.339914 0.635817
vt 0.152696 0.863031
vt 0.000000 0.904315
vt 0.008605 0.866453
vt 0.152696 0.726533
vt 0.383204 0.635817
vt 0.383904 0.637933
vt 0.382181 0.637933
vt 0.410505 0.073101
vt 0.228506 0.128150
vt 0.271366 0.000000
vt 0.408697 0.635817
vt 0.228506 0.726533
vt 0.163777 0.000244
vt 0.166109 0.000000
vt 0.410505 0.058721
vt 0.534873 0.729134
vt 0.533528 0.729479
vt 0.714895 0.000000
vt 0.714895 0.343018
vt 0.565246 0.228771
vt 0.837189 0.352373
vt 0.799157 0.704280
vt 0.799157 0.350475
vt 0.684523 0.007457
vt 0.534873 0.236228
vt 0.684523 0.350475
vt 0.689345 0.462973
vt 0.933550 0.000000
vt 0.933550 0.343111
vt 0.838646 0.281847
vt 0.994531 0.359330
vt 0.975522 0.761287
vt 0.975522 0.350475
vt 0.689345 0.739247
vt 0.534873 0.559306
vt 0.551475 0.555419
vt 0.672743 0.354363
vt 0.689345 0.350475
vt 0.913478 0.350475
vt 0.913478 0.883320
vt 0.852952 0.731726
vt 0.957228 0.858479
vt 0.975523 0.364127
vt 0.975523 0.872132
vt 0.952066 0.322841
vt 0.933550 0.012860
vt 0.952066 0.000000
vt 0.837189 0.745720
vt 0.897715 0.897314
vt 0.714895 0.071962
vt 0.838646 0.000000
vt 0.838646 0.293863
vt 0.913478 0.714374
vt 0.382181 0.908854
vt 0.144091 0.900893
vt 0.410505 0.635270
vt 0.000000 0.726533
vt 0.534873 0.000000
vt 0.837189 0.706179
vt 0.994530 0.770143
vt 0.672743 0.743135
vt 0.957228 0.350474
vt 0.933550 0.335701
vn 0.3166 -0.8942 0.3166
vn -0.9471 -0.3166 0.0529
vn 0.8453 0.4174 0.3335
vn 0.7071 0.0000 -0.7071
vn -0.3166 0.8942 -0.3166
vn 0.0465 0.4284 -0.9024
vn -0.0518 -0.5644 0.8239
vn -0.0491 -0.9850 -0.1651
vn 0.7476 0.6637 -0.0241
vn -0.7772 0.6292 0.0019
vn 0.3942 0.8678 -0.3025
vn -0.9838 0.1787 -0.0138
vn 0.8635 -0.3025 -0.4035
vn 0.7024 0.1152 0.7024
vn -0.3942 -0.8678 0.3025
vn -0.1901 -0.9001 -0.3920
vn -0.9374 0.1380 -0.3198
vn 0.6840 -0.1922 0.7037
vn 0.8612 0.0290 -0.5074
vn 0.1901 0.9001 0.3920
vn -0.1180 0.9038 0.4113
vn -0.9035 -0.2694 0.3333
vn 0.6849 0.2811 -0.6723
vn 0.8669 0.1109 0.4859
vn 0.1180 -0.9038 -0.4113
vn 0.7192 0.6944 -0.0241
vn -0.7619 0.6476 0.0069
usemtl Material
s off
f 4/1/1 1/2/1 3/3/1
f 4/4/2 2/5/2 1/6/2
f 5/7/3 4/8/3 3/9/3
f 5/10/4 1/11/4 2/12/4
f 5/10/5 2/12/5 6/13/5
f 13/14/6 12/15/6 14/16/6
f 11/17/7 10/18/7 8/19/7
f 11/17/8 13/20/8 10/18/8
f 8/21/9 13/22/9 14/23/9
f 11/24/10 14/25/10 12/26/10
f 18/27/11 15/28/11 17/29/11
f 15/30/12 20/31/12 16/32/12
f 20/33/13 17/29/13 19/34/13
f 16/35/14 17/29/14 15/28/14
f 19/36/15 16/32/15 20/31/15
f 24/37/16 21/38/16 23/39/16
f 21/40/17 26/41/17 22/42/17
f 26/43/18 23/44/18 25/45/18
f 25/45/19 21/46/19 22/47/19
f 25/45/20 22/47/20 26/43/20
f 30/48/21 27/49/21 29/50/21
f 27/51/22 32/52/22 28/53/22
f 32/54/23 29/55/23 31/56/23
f 31/57/24 27/49/24 28/58/24
f 31/59/25 28/60/25 32/61/25
f 4/4/2 6/62/2 2/5/2
f 5/7/3 6/63/3 4/8/3
f 5/10/4 3/64/4 1/11/4
f 11/17/8 12/65/8 13/20/8
f 8/21/26 10/66/26 13/22/26
f 11/24/27 8/67/27 14/25/27
f 15/30/12 18/68/12 20/31/12
f 20/33/13 18/27/13 17/29/13
f 16/35/14 19/34/14 17/29/14
f 21/40/17 24/69/17 26/41/17
f 26/43/18 24/70/18 23/44/18
f 25/45/19 23/44/19 21/46/19
f 27/51/22 30/71/22 32/52/22
f 32/54/23 30/72/23 29/55/23
f 31/57/24 29/50/24 27/49/24
l 9 8
l 7 8
